# xmcd
#
# Track frame offsets:
#	183
#	10458
#	21483
#	32208
#	43083
#	55908
#	67533
#	80958
#	93333
#	103908
#	117783
#	130383
#	142683
#	155883
#
# Disc length: 2212 seconds
#
# Revision: 3
# Processed by: cddbd v1.5.2PL0 Copyright (c) Steve Scherf et al.
# Submitted via: EasyCDDAExtractor 2010.6.0.0
#
DISCID=c108a20e
DTITLE=Howlin' Wolf
DYEAR=1990
DGENRE=Blues
TTITLE0=Shake For Me
TTITLE1=Red Rooster
TTITLE2=Who's Been Talkin'
TTITLE3=Wang Dang Doodle
TTITLE4=Back Door Man
TTITLE5=Howlin' For My Baby
TTITLE6=My Baby Walked Off
TTITLE7=Goin' Back Home
TTITLE8=Built For Comfort
TTITLE9=The Wolf Is At Your Door
TTITLE10=My Mind Is Ramblin'
TTITLE11=Streamline Woman
TTITLE12=Worried About You
TTITLE13=Do The Do
EXTD=
EXTT0=
EXTT1=
EXTT2=
EXTT3=
EXTT4=
EXTT5=
EXTT6=
EXTT7=
EXTT8=
EXTT9=
EXTT10=
EXTT11=
EXTT12=
EXTT13=
PLAYORDER=
